<svg width="51" height="15" viewBox="0 0 51 15" fill="none" xmlns="http://www.w3.org/2000/svg">
<rect width="50.1287" height="14.1089" rx="4.09901" fill="#003DA5"/>
<path d="M12.0449 9.55469H11.6036L11.4797 9.20627C11.3403 9.50049 11.0384 9.6476 10.69 9.6476C10.0086 9.6476 9.58276 9.15982 9.58276 8.46298V5.48984C9.58276 4.8472 10.0628 4.30522 10.8216 4.30522C11.5803 4.30522 12.0062 4.83172 12.0062 5.48984V6.17893H11.2319V5.44338C11.2319 5.22659 11.1003 5.04851 10.8216 5.04851C10.5506 5.04851 10.4112 5.23433 10.4112 5.45112V8.51718C10.4112 8.74172 10.5583 8.92754 10.8293 8.92754C11.108 8.92754 11.2474 8.74172 11.2474 8.51718V7.59582H10.8448V6.97641H12.0449V9.55469ZM14.5999 9.55469H12.5404V4.39813H14.5999V5.12594H13.3611V6.55057H14.2206V7.23192H13.3611V8.80366H14.5999V9.55469ZM17.2188 5.14916H16.4368V9.55469H15.6161V5.14916H14.8186V4.39813H17.2188V5.14916ZM20.9661 9.55469H20.1299L19.9983 8.54815H19.2472L19.0924 9.55469H18.3414L19.2008 4.39813H20.1067L20.9661 9.55469ZM19.9054 7.85906L19.6499 5.75308L19.3479 7.85906H19.9054ZM24.973 9.55469C24.8801 9.61663 24.7794 9.6476 24.5936 9.6476C24.4078 9.6476 24.2297 9.57017 24.1291 9.46178C23.951 9.57792 23.7342 9.6476 23.4555 9.6476C22.7354 9.6476 22.2554 9.13659 22.2554 8.43976V5.51306C22.2554 4.82397 22.7431 4.30522 23.4864 4.30522C24.2297 4.30522 24.7175 4.82397 24.7175 5.51306V8.4475C24.7175 8.63332 24.6788 8.80366 24.6091 8.93528C24.6788 9.00496 24.7717 9.03594 24.973 9.03594V9.55469ZM23.8813 8.30039V5.44338C23.8813 5.22659 23.7419 5.04851 23.4864 5.04851C23.2309 5.04851 23.0838 5.22659 23.0838 5.44338V8.50944C23.0838 8.72623 23.2309 8.90431 23.4864 8.90431C23.5716 8.90431 23.6568 8.88883 23.7187 8.84237L23.5251 8.66429L23.8813 8.30039ZM27.6508 8.48621C27.6508 9.18304 27.1476 9.6476 26.4507 9.6476C25.7539 9.6476 25.2352 9.18304 25.2352 8.48621V4.39813H26.0636V8.5017C26.0636 8.76494 26.203 8.91205 26.4507 8.91205C26.714 8.91205 26.8534 8.76494 26.8534 8.5017V4.39813H27.6508V8.48621ZM30.6227 8.42427C30.6227 9.14433 30.1349 9.6476 29.3917 9.6476C28.6484 9.6476 28.1606 9.14433 28.1606 8.42427V5.52855C28.1606 4.81623 28.6484 4.30522 29.3917 4.30522C30.1349 4.30522 30.6227 4.81623 30.6227 5.52855V8.42427ZM29.7943 8.48621V5.46661C29.7943 5.21885 29.6472 5.04851 29.3917 5.04851C29.1361 5.04851 28.989 5.21885 28.989 5.46661V8.48621C28.989 8.73397 29.1361 8.90431 29.3917 8.90431C29.6472 8.90431 29.7943 8.73397 29.7943 8.48621ZM33.2937 5.14916H32.5117V9.55469H31.691V5.14916H30.8935V4.39813H33.2937V5.14916ZM35.7106 9.55469H33.651V4.39813H35.7106V5.12594H34.4717V6.55057H35.3312V7.23192H34.4717V8.80366H35.7106V9.55469Z" fill="white"/>
<path d="M40.2633 7.06158L37.9328 8.57912V7.89003L39.3264 6.97641L37.9328 6.05504V5.36596L40.2633 6.89124V7.06158Z" fill="white"/>
</svg>
